<svg xmlns="http://www.w3.org/2000/svg" viewBox="0 0 600 600">
<rect width="600" height="600" fill="#F4F0E8"/>
<rect x="40" y="40" width="520" height="520" rx="3" fill="none" stroke="#1A1A1A" stroke-width="2.5"/>
<rect x="48" y="48" width="504" height="504" rx="2" fill="none" stroke="#1A1A1A" stroke-width="1"/>
<clipPath id="new-york-h0"><rect x="307.7" y="252.0" width="22.3" height="168.0"/></clipPath><g clip-path="url(#new-york-h0)" stroke="#1A1A1A" stroke-width="1.1" opacity="0.8"><line x1="127.7" y1="424.0" x2="305.7" y2="246.0"/><line x1="134.7" y1="424.0" x2="312.7" y2="246.0"/><line x1="141.7" y1="424.0" x2="319.7" y2="246.0"/><line x1="148.7" y1="424.0" x2="326.7" y2="246.0"/><line x1="155.7" y1="424.0" x2="333.7" y2="246.0"/><line x1="162.7" y1="424.0" x2="340.7" y2="246.0"/><line x1="169.7" y1="424.0" x2="347.7" y2="246.0"/><line x1="176.7" y1="424.0" x2="354.7" y2="246.0"/><line x1="183.7" y1="424.0" x2="361.7" y2="246.0"/><line x1="190.7" y1="424.0" x2="368.7" y2="246.0"/><line x1="197.7" y1="424.0" x2="375.7" y2="246.0"/><line x1="204.7" y1="424.0" x2="382.7" y2="246.0"/><line x1="211.7" y1="424.0" x2="389.7" y2="246.0"/><line x1="218.7" y1="424.0" x2="396.7" y2="246.0"/><line x1="225.7" y1="424.0" x2="403.7" y2="246.0"/><line x1="232.7" y1="424.0" x2="410.7" y2="246.0"/><line x1="239.7" y1="424.0" x2="417.7" y2="246.0"/><line x1="246.7" y1="424.0" x2="424.7" y2="246.0"/><line x1="253.7" y1="424.0" x2="431.7" y2="246.0"/><line x1="260.7" y1="424.0" x2="438.7" y2="246.0"/><line x1="267.7" y1="424.0" x2="445.7" y2="246.0"/><line x1="274.7" y1="424.0" x2="452.7" y2="246.0"/><line x1="281.7" y1="424.0" x2="459.7" y2="246.0"/><line x1="288.7" y1="424.0" x2="466.7" y2="246.0"/><line x1="295.7" y1="424.0" x2="473.7" y2="246.0"/><line x1="302.7" y1="424.0" x2="480.7" y2="246.0"/><line x1="309.7" y1="424.0" x2="487.7" y2="246.0"/><line x1="316.7" y1="424.0" x2="494.7" y2="246.0"/><line x1="323.7" y1="424.0" x2="501.7" y2="246.0"/><line x1="330.7" y1="424.0" x2="508.7" y2="246.0"/><line x1="337.7" y1="424.0" x2="515.7" y2="246.0"/></g>
<clipPath id="new-york-h4"><rect x="237.2" y="302.0" width="20.8" height="118.0"/></clipPath><g clip-path="url(#new-york-h4)" stroke="#1A1A1A" stroke-width="1.1" opacity="0.8"><line x1="107.2" y1="424.0" x2="235.2" y2="296.0"/><line x1="114.2" y1="424.0" x2="242.2" y2="296.0"/><line x1="121.2" y1="424.0" x2="249.2" y2="296.0"/><line x1="128.2" y1="424.0" x2="256.2" y2="296.0"/><line x1="135.2" y1="424.0" x2="263.2" y2="296.0"/><line x1="142.2" y1="424.0" x2="270.2" y2="296.0"/><line x1="149.2" y1="424.0" x2="277.2" y2="296.0"/><line x1="156.2" y1="424.0" x2="284.2" y2="296.0"/><line x1="163.2" y1="424.0" x2="291.2" y2="296.0"/><line x1="170.2" y1="424.0" x2="298.2" y2="296.0"/><line x1="177.2" y1="424.0" x2="305.2" y2="296.0"/><line x1="184.2" y1="424.0" x2="312.2" y2="296.0"/><line x1="191.2" y1="424.0" x2="319.2" y2="296.0"/><line x1="198.2" y1="424.0" x2="326.2" y2="296.0"/><line x1="205.2" y1="424.0" x2="333.2" y2="296.0"/><line x1="212.2" y1="424.0" x2="340.2" y2="296.0"/><line x1="219.2" y1="424.0" x2="347.2" y2="296.0"/><line x1="226.2" y1="424.0" x2="354.2" y2="296.0"/><line x1="233.2" y1="424.0" x2="361.2" y2="296.0"/><line x1="240.2" y1="424.0" x2="368.2" y2="296.0"/><line x1="247.2" y1="424.0" x2="375.2" y2="296.0"/><line x1="254.2" y1="424.0" x2="382.2" y2="296.0"/><line x1="261.2" y1="424.0" x2="389.2" y2="296.0"/><line x1="268.2" y1="424.0" x2="396.2" y2="296.0"/></g>
<clipPath id="new-york-h5"><rect x="172.2" y="342.0" width="17.8" height="78.0"/></clipPath><g clip-path="url(#new-york-h5)" stroke="#1A1A1A" stroke-width="1.1" opacity="0.8"><line x1="82.2" y1="424.0" x2="170.2" y2="336.0"/><line x1="89.2" y1="424.0" x2="177.2" y2="336.0"/><line x1="96.2" y1="424.0" x2="184.2" y2="336.0"/><line x1="103.2" y1="424.0" x2="191.2" y2="336.0"/><line x1="110.2" y1="424.0" x2="198.2" y2="336.0"/><line x1="117.2" y1="424.0" x2="205.2" y2="336.0"/><line x1="124.2" y1="424.0" x2="212.2" y2="336.0"/><line x1="131.2" y1="424.0" x2="219.2" y2="336.0"/><line x1="138.2" y1="424.0" x2="226.2" y2="336.0"/><line x1="145.2" y1="424.0" x2="233.2" y2="336.0"/><line x1="152.2" y1="424.0" x2="240.2" y2="336.0"/><line x1="159.2" y1="424.0" x2="247.2" y2="336.0"/><line x1="166.2" y1="424.0" x2="254.2" y2="336.0"/><line x1="173.2" y1="424.0" x2="261.2" y2="336.0"/><line x1="180.2" y1="424.0" x2="268.2" y2="336.0"/><line x1="187.2" y1="424.0" x2="275.2" y2="336.0"/><line x1="194.2" y1="424.0" x2="282.2" y2="336.0"/></g>
<clipPath id="new-york-h7"><rect x="372.5" y="232.0" width="15.5" height="188.0"/></clipPath><g clip-path="url(#new-york-h7)" stroke="#1A1A1A" stroke-width="1.1" opacity="0.8"><line x1="172.5" y1="424.0" x2="370.5" y2="226.0"/><line x1="179.5" y1="424.0" x2="377.5" y2="226.0"/><line x1="186.5" y1="424.0" x2="384.5" y2="226.0"/><line x1="193.5" y1="424.0" x2="391.5" y2="226.0"/><line x1="200.5" y1="424.0" x2="398.5" y2="226.0"/><line x1="207.5" y1="424.0" x2="405.5" y2="226.0"/><line x1="214.5" y1="424.0" x2="412.5" y2="226.0"/><line x1="221.5" y1="424.0" x2="419.5" y2="226.0"/><line x1="228.5" y1="424.0" x2="426.5" y2="226.0"/><line x1="235.5" y1="424.0" x2="433.5" y2="226.0"/><line x1="242.5" y1="424.0" x2="440.5" y2="226.0"/><line x1="249.5" y1="424.0" x2="447.5" y2="226.0"/><line x1="256.5" y1="424.0" x2="454.5" y2="226.0"/><line x1="263.5" y1="424.0" x2="461.5" y2="226.0"/><line x1="270.5" y1="424.0" x2="468.5" y2="226.0"/><line x1="277.5" y1="424.0" x2="475.5" y2="226.0"/><line x1="284.5" y1="424.0" x2="482.5" y2="226.0"/><line x1="291.5" y1="424.0" x2="489.5" y2="226.0"/><line x1="298.5" y1="424.0" x2="496.5" y2="226.0"/><line x1="305.5" y1="424.0" x2="503.5" y2="226.0"/><line x1="312.5" y1="424.0" x2="510.5" y2="226.0"/><line x1="319.5" y1="424.0" x2="517.5" y2="226.0"/><line x1="326.5" y1="424.0" x2="524.5" y2="226.0"/><line x1="333.5" y1="424.0" x2="531.5" y2="226.0"/><line x1="340.5" y1="424.0" x2="538.5" y2="226.0"/><line x1="347.5" y1="424.0" x2="545.5" y2="226.0"/><line x1="354.5" y1="424.0" x2="552.5" y2="226.0"/><line x1="361.5" y1="424.0" x2="559.5" y2="226.0"/><line x1="368.5" y1="424.0" x2="566.5" y2="226.0"/><line x1="375.5" y1="424.0" x2="573.5" y2="226.0"/><line x1="382.5" y1="424.0" x2="580.5" y2="226.0"/><line x1="389.5" y1="424.0" x2="587.5" y2="226.0"/><line x1="396.5" y1="424.0" x2="594.5" y2="226.0"/></g>
<clipPath id="new-york-h8"><rect x="434.0" y="292.0" width="20.0" height="128.0"/></clipPath><g clip-path="url(#new-york-h8)" stroke="#1A1A1A" stroke-width="1.1" opacity="0.8"><line x1="294.0" y1="424.0" x2="432.0" y2="286.0"/><line x1="301.0" y1="424.0" x2="439.0" y2="286.0"/><line x1="308.0" y1="424.0" x2="446.0" y2="286.0"/><line x1="315.0" y1="424.0" x2="453.0" y2="286.0"/><line x1="322.0" y1="424.0" x2="460.0" y2="286.0"/><line x1="329.0" y1="424.0" x2="467.0" y2="286.0"/><line x1="336.0" y1="424.0" x2="474.0" y2="286.0"/><line x1="343.0" y1="424.0" x2="481.0" y2="286.0"/><line x1="350.0" y1="424.0" x2="488.0" y2="286.0"/><line x1="357.0" y1="424.0" x2="495.0" y2="286.0"/><line x1="364.0" y1="424.0" x2="502.0" y2="286.0"/><line x1="371.0" y1="424.0" x2="509.0" y2="286.0"/><line x1="378.0" y1="424.0" x2="516.0" y2="286.0"/><line x1="385.0" y1="424.0" x2="523.0" y2="286.0"/><line x1="392.0" y1="424.0" x2="530.0" y2="286.0"/><line x1="399.0" y1="424.0" x2="537.0" y2="286.0"/><line x1="406.0" y1="424.0" x2="544.0" y2="286.0"/><line x1="413.0" y1="424.0" x2="551.0" y2="286.0"/><line x1="420.0" y1="424.0" x2="558.0" y2="286.0"/><line x1="427.0" y1="424.0" x2="565.0" y2="286.0"/><line x1="434.0" y1="424.0" x2="572.0" y2="286.0"/><line x1="441.0" y1="424.0" x2="579.0" y2="286.0"/><line x1="448.0" y1="424.0" x2="586.0" y2="286.0"/><line x1="455.0" y1="424.0" x2="593.0" y2="286.0"/><line x1="462.0" y1="424.0" x2="600.0" y2="286.0"/></g>
<clipPath id="new-york-h9"><rect x="501.2" y="342.0" width="20.8" height="78.0"/></clipPath><g clip-path="url(#new-york-h9)" stroke="#1A1A1A" stroke-width="1.1" opacity="0.8"><line x1="411.2" y1="424.0" x2="499.2" y2="336.0"/><line x1="418.2" y1="424.0" x2="506.2" y2="336.0"/><line x1="425.2" y1="424.0" x2="513.2" y2="336.0"/><line x1="432.2" y1="424.0" x2="520.2" y2="336.0"/><line x1="439.2" y1="424.0" x2="527.2" y2="336.0"/><line x1="446.2" y1="424.0" x2="534.2" y2="336.0"/><line x1="453.2" y1="424.0" x2="541.2" y2="336.0"/><line x1="460.2" y1="424.0" x2="548.2" y2="336.0"/><line x1="467.2" y1="424.0" x2="555.2" y2="336.0"/><line x1="474.2" y1="424.0" x2="562.2" y2="336.0"/><line x1="481.2" y1="424.0" x2="569.2" y2="336.0"/><line x1="488.2" y1="424.0" x2="576.2" y2="336.0"/><line x1="495.2" y1="424.0" x2="583.2" y2="336.0"/><line x1="502.2" y1="424.0" x2="590.2" y2="336.0"/><line x1="509.2" y1="424.0" x2="597.2" y2="336.0"/><line x1="516.2" y1="424.0" x2="604.2" y2="336.0"/><line x1="523.2" y1="424.0" x2="611.2" y2="336.0"/><line x1="530.2" y1="424.0" x2="618.2" y2="336.0"/></g>
<clipPath id="new-york-c0"><circle cx="150.0" cy="170.0" r="35.0"/></clipPath><g clip-path="url(#new-york-c0)" stroke="#1A1A1A" stroke-width="1.1" opacity="0.7"><line x1="112.0" y1="138.0" x2="188.0" y2="138.0"/><line x1="112.0" y1="144.0" x2="188.0" y2="144.0"/><line x1="112.0" y1="150.0" x2="188.0" y2="150.0"/><line x1="112.0" y1="156.0" x2="188.0" y2="156.0"/><line x1="112.0" y1="162.0" x2="188.0" y2="162.0"/><line x1="112.0" y1="168.0" x2="188.0" y2="168.0"/><line x1="112.0" y1="174.0" x2="188.0" y2="174.0"/><line x1="112.0" y1="180.0" x2="188.0" y2="180.0"/><line x1="112.0" y1="186.0" x2="188.0" y2="186.0"/><line x1="112.0" y1="192.0" x2="188.0" y2="192.0"/><line x1="112.0" y1="198.0" x2="188.0" y2="198.0"/></g>
<g fill="none" stroke="#1A1A1A" stroke-width="3" stroke-linecap="round" stroke-linejoin="round">
<circle cx="150" cy="170" r="38"/>
<path d="M 420 140 q 8 -8 16 0 q 8 -8 16 0"/>
<path d="M 466 116 q 6 -6 12 0 q 6 -6 12 0"/>
<rect x="268" y="250" width="64" height="170"/>
<rect x="278" y="200" width="44" height="50"/>
<rect x="287" y="165" width="26" height="35"/>
<rect x="294" y="140" width="12" height="25"/>
<line x1="300" y1="140" x2="300" y2="72"/>
<rect x="200" y="300" width="60" height="120"/>
<rect x="140" y="340" width="52" height="80"/>
<rect x="156" y="316" width="20" height="18"/>
<path d="M 153 316 L 166 305 L 179 316"/>
<line x1="160" y1="334" x2="160" y2="340"/>
<line x1="172" y1="334" x2="172" y2="340"/>
<path d="M 82 420 L 82 380 L 96 380 L 96 368 L 118 368 L 118 380 L 132 380 L 132 420"/>
<rect x="344" y="230" width="46" height="190"/>
<path d="M 344 230 Q 367 186 390 230"/>
<path d="M 352 214 Q 367 186 382 214"/>
<path d="M 358 198 Q 367 176 376 198"/>
<line x1="367" y1="178" x2="367" y2="120"/>
<rect x="398" y="290" width="58" height="130"/>
<rect x="464" y="340" width="60" height="80"/>
</g>
<g stroke="#1A1A1A" stroke-width="1.5" stroke-linecap="round">
<line x1="284" y1="262" x2="284" y2="410"/>
<line x1="300" y1="262" x2="300" y2="410"/>
<line x1="316" y1="262" x2="316" y2="410"/>
<line x1="292" y1="210" x2="292" y2="242"/>
<line x1="308" y1="210" x2="308" y2="242"/>
<line x1="356" y1="240" x2="356" y2="410"/>
<line x1="367" y1="240" x2="367" y2="410"/>
<line x1="378" y1="240" x2="378" y2="410"/>
<g stroke-dasharray="6 6">
<line x1="212" y1="320" x2="250" y2="320"/>
<line x1="212" y1="340" x2="250" y2="340"/>
<line x1="212" y1="360" x2="250" y2="360"/>
<line x1="212" y1="380" x2="250" y2="380"/>
<line x1="212" y1="400" x2="250" y2="400"/>
<line x1="150" y1="360" x2="184" y2="360"/>
<line x1="150" y1="380" x2="184" y2="380"/>
<line x1="150" y1="400" x2="184" y2="400"/>
<line x1="408" y1="310" x2="448" y2="310"/>
<line x1="408" y1="330" x2="448" y2="330"/>
<line x1="408" y1="350" x2="448" y2="350"/>
<line x1="408" y1="370" x2="448" y2="370"/>
<line x1="408" y1="390" x2="448" y2="390"/>
<line x1="474" y1="360" x2="516" y2="360"/>
<line x1="474" y1="380" x2="516" y2="380"/>
<line x1="474" y1="400" x2="516" y2="400"/>
</g>
</g>

<line x1="66" y1="420" x2="534" y2="420" stroke="#1A1A1A" stroke-width="3" stroke-linecap="round"/>
<g stroke="#1A1A1A" stroke-width="1.1" opacity="0.55"><line x1="84" y1="425" x2="77" y2="433"/><line x1="95" y1="425" x2="88" y2="433"/><line x1="106" y1="425" x2="99" y2="433"/><line x1="117" y1="425" x2="110" y2="433"/><line x1="128" y1="425" x2="121" y2="433"/><line x1="139" y1="425" x2="132" y2="433"/><line x1="150" y1="425" x2="143" y2="433"/><line x1="161" y1="425" x2="154" y2="433"/><line x1="172" y1="425" x2="165" y2="433"/><line x1="183" y1="425" x2="176" y2="433"/><line x1="194" y1="425" x2="187" y2="433"/><line x1="205" y1="425" x2="198" y2="433"/><line x1="216" y1="425" x2="209" y2="433"/><line x1="227" y1="425" x2="220" y2="433"/><line x1="238" y1="425" x2="231" y2="433"/><line x1="249" y1="425" x2="242" y2="433"/><line x1="260" y1="425" x2="253" y2="433"/><line x1="271" y1="425" x2="264" y2="433"/><line x1="282" y1="425" x2="275" y2="433"/><line x1="293" y1="425" x2="286" y2="433"/><line x1="304" y1="425" x2="297" y2="433"/><line x1="315" y1="425" x2="308" y2="433"/><line x1="326" y1="425" x2="319" y2="433"/><line x1="337" y1="425" x2="330" y2="433"/><line x1="348" y1="425" x2="341" y2="433"/><line x1="359" y1="425" x2="352" y2="433"/><line x1="370" y1="425" x2="363" y2="433"/><line x1="381" y1="425" x2="374" y2="433"/><line x1="392" y1="425" x2="385" y2="433"/><line x1="403" y1="425" x2="396" y2="433"/><line x1="414" y1="425" x2="407" y2="433"/><line x1="425" y1="425" x2="418" y2="433"/><line x1="436" y1="425" x2="429" y2="433"/><line x1="447" y1="425" x2="440" y2="433"/><line x1="458" y1="425" x2="451" y2="433"/><line x1="469" y1="425" x2="462" y2="433"/><line x1="480" y1="425" x2="473" y2="433"/><line x1="491" y1="425" x2="484" y2="433"/><line x1="502" y1="425" x2="495" y2="433"/><line x1="513" y1="425" x2="506" y2="433"/><line x1="524" y1="425" x2="517" y2="433"/></g>
<text x="300" y="492" text-anchor="middle" font-family="'DM Serif Display', Georgia, serif" font-size="66" fill="#1A1A1A">New York</text>
<text x="301.5" y="524" text-anchor="middle" font-family="'DM Mono', ui-monospace, monospace" font-weight="500" font-size="15" letter-spacing="3" fill="#1A1A1A">40.7128° N · 74.0060° W</text>
<g stroke="#1A1A1A" stroke-width="1.5"><line x1="119.5" y1="519" x2="149.5" y2="519"/><line x1="450.5" y1="519" x2="480.5" y2="519"/></g>
</svg>
