<svg xmlns="http://www.w3.org/2000/svg" viewBox="0 0 600 600">
<rect width="600" height="600" fill="#F4F0E8"/>
<rect x="26" y="26" width="548" height="548" rx="4" fill="none" stroke="#1A1A1A" stroke-width="3"/>
<rect x="36" y="36" width="528" height="528" rx="2" fill="none" stroke="#1A1A1A" stroke-width="1"/>
<g fill="none" stroke="#1A1A1A" stroke-width="3" stroke-linecap="round" stroke-linejoin="round">
<path d="M 86 150 q 8 -20 30 -12 q 14 -22 38 -4 q 22 -4 22 16 Z"/>
<path d="M 430 110 q 8 -18 28 -10 q 13 -20 34 -4 q 20 -4 20 14 Z"/>
<path d="M 214 420 Q 262 330 290 175 L 296 102"/>
<path d="M 386 420 Q 338 330 310 175 L 304 102"/>
<path d="M 246 420 Q 300 354 354 420"/>
<rect x="232" y="334" width="136" height="12"/>
<rect x="266" y="246" width="68" height="10"/>
<rect x="285" y="168" width="30" height="8"/>
<rect x="293" y="92" width="14" height="10"/>
<line x1="300" y1="92" x2="300" y2="60"/>
<line x1="110" y1="420" x2="110" y2="396"/>
<circle cx="110" cy="380" r="22"/>
<line x1="152" y1="420" x2="152" y2="402"/>
<circle cx="152" cy="390" r="16"/>
<line x1="448" y1="420" x2="448" y2="402"/>
<circle cx="448" cy="390" r="16"/>
<line x1="490" y1="420" x2="490" y2="396"/>
<circle cx="490" cy="380" r="22"/>
</g>
<g stroke="#1A1A1A" stroke-width="1.5" stroke-linecap="round">
<line x1="236" y1="404" x2="268" y2="346"/>
<line x1="364" y1="404" x2="332" y2="346"/>
<line x1="250" y1="334" x2="318" y2="256"/>
<line x1="350" y1="334" x2="282" y2="256"/>
<line x1="274" y1="246" x2="306" y2="176"/>
<line x1="326" y1="246" x2="294" y2="176"/>
<line x1="290" y1="168" x2="300" y2="104"/>
<line x1="310" y1="168" x2="300" y2="104"/>
</g>
<line x1="66" y1="420" x2="534" y2="420" stroke="#1A1A1A" stroke-width="3" stroke-linecap="round"/>
<text x="300" y="500" text-anchor="middle" font-family="'DM Serif Display', Georgia, serif" font-size="66" fill="#1A1A1A">Paris</text>
<text x="300" y="542" text-anchor="middle" font-family="'DM Mono', monospace" font-weight="500" font-size="17" letter-spacing="5" fill="#1A1A1A">FRANCE</text>
</svg>
