<svg xmlns="http://www.w3.org/2000/svg" viewBox="0 0 40 40" width="40" height="40"><path d="M19 1.5L20.5 3.3L22.1 7.3L21 6.5Z" fill="#F8DC8A" stroke="#F8DC8A" stroke-width=".6" stroke-linejoin="round"/><path d="M20.5 3.3L21.9 5.8L22.5 7.3L22.1 7.3Z" fill="#F8DC8A" stroke="#F8DC8A" stroke-width=".6" stroke-linejoin="round"/><path d="M21.9 5.8L21.9 8.6L22.5 7.1L22.5 7.3Z" fill="#E2B04A" stroke="#E2B04A" stroke-width=".6" stroke-linejoin="round"/><path d="M21.9 8.6L20.6 11.1L22.2 7.2L22.5 7.1Z" fill="#B07E22" stroke="#B07E22" stroke-width=".6" stroke-linejoin="round"/><path d="M20.6 11.1L19.1 12.8L20.9 8L22.2 7.2Z" fill="#B07E22" stroke="#B07E22" stroke-width=".6" stroke-linejoin="round"/><path d="M19.1 12.8L17.8 13.6L19.3 9.8L20.9 8Z" fill="#B07E22" stroke="#B07E22" stroke-width=".6" stroke-linejoin="round"/><path d="M17.8 13.6L17.3 13.7L17.8 12.2L19.3 9.8Z" fill="#B07E22" stroke="#B07E22" stroke-width=".6" stroke-linejoin="round"/><path d="M17.3 13.7L17.2 13.5L17.8 15L17.8 12.2Z" fill="#E2B04A" stroke="#E2B04A" stroke-width=".6" stroke-linejoin="round"/><path d="M17.2 13.5L17.7 13.7L19.2 17.4L17.8 15Z" fill="#F8DC8A" stroke="#F8DC8A" stroke-width=".6" stroke-linejoin="round"/><path d="M17.7 13.7L19.1 14.6L20.9 19.1L19.2 17.4Z" fill="#F8DC8A" stroke="#F8DC8A" stroke-width=".6" stroke-linejoin="round"/><path d="M19.1 14.6L20.9 16.3L22.4 19.9L20.9 19.1Z" fill="#F8DC8A" stroke="#F8DC8A" stroke-width=".6" stroke-linejoin="round"/><path d="M20.9 16.3L22.4 18.7L23 20L22.4 19.9Z" fill="#F8DC8A" stroke="#F8DC8A" stroke-width=".6" stroke-linejoin="round"/><path d="M22.4 18.7L22.5 21.3L23 20L23 20Z" fill="#E2B04A" stroke="#E2B04A" stroke-width=".6" stroke-linejoin="round"/><path d="M22.5 21.3L21 23.7L22.4 20.2L23 20Z" fill="#B07E22" stroke="#B07E22" stroke-width=".6" stroke-linejoin="round"/><path d="M21 23.7L19.1 25.3L20.9 21.1L22.4 20.2Z" fill="#B07E22" stroke="#B07E22" stroke-width=".6" stroke-linejoin="round"/><path d="M19.1 25.3L17.5 26.2L18.9 22.8L20.9 21.1Z" fill="#B07E22" stroke="#B07E22" stroke-width=".6" stroke-linejoin="round"/><path d="M17.5 26.2L16.8 26.4L17.3 25.1L18.9 22.8Z" fill="#B07E22" stroke="#B07E22" stroke-width=".6" stroke-linejoin="round"/><path d="M16.8 26.4L16.7 26.4L17.2 27.7L17.3 25.1Z" fill="#E2B04A" stroke="#E2B04A" stroke-width=".6" stroke-linejoin="round"/><path d="M16.7 26.4L17.4 26.7L18.7 30L17.2 27.7Z" fill="#F8DC8A" stroke="#F8DC8A" stroke-width=".6" stroke-linejoin="round"/><path d="M17.4 26.7L19.2 27.6L20.8 31.6L18.7 30Z" fill="#F8DC8A" stroke="#F8DC8A" stroke-width=".6" stroke-linejoin="round"/><path d="M19.2 27.6L21.3 29.3L22.6 32.5L20.8 31.6Z" fill="#F8DC8A" stroke="#F8DC8A" stroke-width=".6" stroke-linejoin="round"/><path d="M21.3 29.3L23 31.6L23.5 32.8L22.6 32.5Z" fill="#F8DC8A" stroke="#F8DC8A" stroke-width=".6" stroke-linejoin="round"/><path d="M23 31.6L23.1 34L23.6 32.8L23.5 32.8Z" fill="#E2B04A" stroke="#E2B04A" stroke-width=".6" stroke-linejoin="round"/><path d="M23.1 34L21.5 36.3L22.7 33.2L23.6 32.8Z" fill="#B07E22" stroke="#B07E22" stroke-width=".6" stroke-linejoin="round"/><path d="M21.5 36.3L19.3 37.9L20.8 34.1L22.7 33.2Z" fill="#B07E22" stroke="#B07E22" stroke-width=".6" stroke-linejoin="round"/><path d="M20 1.5C20.2 1.8 20.9 2.6 21.3 3.3C21.7 4 22 4.9 22.2 5.8C22.3 6.7 22.3 7.7 22.2 8.6C22.1 9.5 21.8 10.4 21.4 11.1C21 11.8 20.5 12.4 20 12.8C19.5 13.2 18.9 13.4 18.5 13.6C18.1 13.7 17.7 13.7 17.6 13.7C17.4 13.7 17.4 13.5 17.5 13.5C17.7 13.5 18 13.5 18.4 13.7C18.8 13.8 19.5 14.1 20 14.6C20.5 15 21.2 15.6 21.6 16.3C22.1 17 22.5 17.8 22.7 18.7C22.9 19.5 22.9 20.5 22.8 21.3C22.6 22.1 22.2 23 21.7 23.7C21.3 24.3 20.6 24.9 20 25.3C19.4 25.7 18.7 26 18.2 26.2C17.7 26.4 17.2 26.4 17 26.4C16.8 26.4 16.8 26.4 17 26.4C17.1 26.5 17.6 26.5 18.1 26.7C18.6 26.9 19.4 27.2 20 27.6C20.6 28 21.4 28.6 22 29.3C22.5 29.9 23 30.8 23.3 31.6C23.5 32.3 23.5 33.3 23.3 34C23.1 34.8 22.6 35.6 22.1 36.3C21.5 36.9 20.3 37.6 20 37.9M20 6.5C20.2 6.6 20.9 7.1 21.3 7.3C21.7 7.4 22 7.3 22.2 7.3C22.3 7.3 22.3 7.1 22.2 7.1C22.1 7.1 21.8 7 21.4 7.2C21 7.3 20.5 7.6 20 8C19.5 8.5 18.9 9.1 18.5 9.8C18.1 10.5 17.7 11.4 17.6 12.2C17.4 13.1 17.4 14.1 17.5 15C17.7 15.8 18 16.7 18.4 17.4C18.8 18 19.5 18.6 20 19.1C20.5 19.5 21.2 19.7 21.6 19.9C22.1 20 22.5 20 22.7 20C22.9 20.1 22.9 19.9 22.8 20C22.6 20 22.2 20 21.7 20.2C21.3 20.4 20.6 20.6 20 21.1C19.4 21.5 18.7 22.1 18.2 22.8C17.7 23.5 17.2 24.3 17 25.1C16.8 25.9 16.8 26.9 17 27.7C17.1 28.5 17.6 29.3 18.1 30C18.6 30.6 19.4 31.2 20 31.6C20.6 32 21.4 32.3 22 32.5C22.5 32.7 23 32.7 23.3 32.8C23.5 32.8 23.5 32.8 23.3 32.8C23.1 32.9 22.6 33 22.1 33.2C21.5 33.4 20.3 34 20 34.1" stroke="#7A5212" stroke-width=".6" fill="none" opacity="0.55"/></svg>