<svg xmlns="http://www.w3.org/2000/svg" viewBox="0 0 600 600">
<rect width="600" height="600" fill="#151515"/>
<g fill="#F6EFE0" opacity="0.7"><circle cx="197.1" cy="96.1" r="1.9"/><circle cx="50.3" cy="321.0" r="1.5"/><circle cx="41.9" cy="304.3" r="1.1"/><circle cx="261.2" cy="48.8" r="1.1"/><circle cx="255.9" cy="490.9" r="1.2"/><circle cx="138.4" cy="374.4" r="2.3"/><circle cx="345.0" cy="239.7" r="2.4"/><circle cx="35.2" cy="509.3" r="1.4"/><circle cx="92.2" cy="76.8" r="1.4"/><circle cx="484.6" cy="113.5" r="1.8"/><circle cx="381.1" cy="225.5" r="1.8"/><circle cx="44.7" cy="42.8" r="1.3"/><circle cx="405.4" cy="257.7" r="1.4"/><circle cx="350.0" cy="272.7" r="1.4"/><circle cx="471.9" cy="416.2" r="1.3"/><circle cx="343.5" cy="314.7" r="2.2"/><circle cx="434.0" cy="176.2" r="2.4"/><circle cx="77.0" cy="252.2" r="2.1"/><circle cx="96.8" cy="293.6" r="1.1"/><circle cx="398.2" cy="454.5" r="1.8"/><circle cx="519.3" cy="191.2" r="2.0"/><circle cx="355.1" cy="346.7" r="1.6"/><circle cx="498.5" cy="559.7" r="1.7"/><circle cx="395.9" cy="43.4" r="2.0"/><circle cx="385.9" cy="588.0" r="2.2"/><circle cx="174.2" cy="233.3" r="1.9"/><circle cx="21.2" cy="277.6" r="1.2"/><circle cx="76.4" cy="42.4" r="2.1"/><circle cx="83.5" cy="152.6" r="1.5"/><circle cx="516.9" cy="55.1" r="1.6"/><circle cx="328.9" cy="523.9" r="2.1"/><circle cx="512.6" cy="170.6" r="1.6"/><circle cx="217.5" cy="524.4" r="2.3"/><circle cx="96.1" cy="110.9" r="1.3"/><circle cx="144.3" cy="291.2" r="1.8"/><circle cx="161.4" cy="10.4" r="1.6"/><circle cx="223.6" cy="338.7" r="2.3"/><circle cx="411.2" cy="309.0" r="1.9"/><circle cx="402.9" cy="39.5" r="2.3"/><circle cx="463.5" cy="518.7" r="2.1"/></g>
<circle cx="300" cy="224" r="150" fill="#E8833A" opacity="0.12"/><circle cx="300" cy="224" r="118" fill="#E8833A" opacity="0.12"/>
<rect x="44" y="44" width="512" height="512" rx="3" fill="none" stroke="#E8833A" stroke-width="2"/>
<rect x="51" y="51" width="498" height="498" rx="2" fill="none" stroke="#E8833A" stroke-width="1" opacity="0.7"/>
<rect x="39" y="39" width="10" height="10" transform="rotate(45 44 44)" fill="#E8833A"/>
<rect x="39" y="551" width="10" height="10" transform="rotate(45 44 556)" fill="#E8833A"/>
<rect x="551" y="39" width="10" height="10" transform="rotate(45 556 44)" fill="#E8833A"/>
<rect x="551" y="551" width="10" height="10" transform="rotate(45 556 556)" fill="#E8833A"/>
<path d="M 310.0 159.4 Q 305.0 123.4 330.0 109.0" fill="none" stroke="#6B5A2E" stroke-width="22.5" stroke-linecap="round"/><path d="M 320.0 148.6 Q 390.0 94.6 410.0 141.4 Q 360.0 159.4 320.0 148.6 Z" fill="#5E7A3A"/><path d="M 290.0 145.0 q -35.0 -3.6 -40.0 -25.2 q 0.0 -18.0 20.0 -14.4 q 15.0 7.2 0.0 14.4" fill="none" stroke="#5E7A3A" stroke-width="4.5" stroke-linecap="round"/><ellipse cx="217.5" cy="235.0" rx="67.5" ry="79.2" fill="#C4601F"/><ellipse cx="382.5" cy="235.0" rx="67.5" ry="79.2" fill="#C4601F"/><ellipse cx="257.5" cy="235.0" rx="67.5" ry="88.2" fill="#E8833A"/><ellipse cx="342.5" cy="235.0" rx="67.5" ry="88.2" fill="#E8833A"/><ellipse cx="300.0" cy="235.0" rx="60.0" ry="91.8" fill="#E8833A"/><path d="M 237.5 159.4 Q 215.6 235.0 237.5 316.0" fill="none" stroke="#C4601F" stroke-width="5.0" opacity="0.55"/><path d="M 362.5 159.4 Q 384.4 235.0 362.5 316.0" fill="none" stroke="#C4601F" stroke-width="5.0" opacity="0.55"/><path d="M 277.5 159.4 Q 269.6 235.0 277.5 316.0" fill="none" stroke="#C4601F" stroke-width="5.0" opacity="0.55"/><path d="M 322.5 159.4 Q 330.4 235.0 322.5 316.0" fill="none" stroke="#C4601F" stroke-width="5.0" opacity="0.55"/><path d="M 260.0 184.6 Q 240.0 226.0 255.0 271.0" fill="none" stroke="#F6A25A" stroke-width="8.8" stroke-linecap="round"/><g fill="#FFD25E"><polygon points="235.0,227.5 277.5,227.5 256.2,187.5"/><polygon points="365.0,227.5 322.5,227.5 343.8,187.5"/><polygon points="290.0,247.5 310.0,247.5 300.0,232.5"/><path d="M 222.5 262.5 Q 300.0 335.0 377.5 262.5 L 355.0 277.5 L 337.5 265.0 L 317.5 282.5 L 297.5 270.0 L 277.5 285.0 L 260.0 267.5 L 242.5 280.0 Z"/></g>
<text x="308" y="411.4" text-anchor="middle" font-family="'Bebas Neue', Impact, sans-serif" font-size="92" letter-spacing="16" fill="#F6EFE0">HAPPY</text>
<text x="300" y="489.0" text-anchor="middle" font-family="'Playfair Display', Georgia, serif" font-style="italic" font-weight="700" font-size="92" fill="#E8833A">halloween</text>
</svg>
